<?xml version="1.0" encoding="UTF-8"?>
<!DOCTYPE svg PUBLIC "-//W3C//DTD SVG 1.1//EN" "http://www.w3.org/Graphics/SVG/1.1/DTD/svg11.dtd">
<!-- Creator: CorelDRAW 2019 (64-Bit) -->
<svg xmlns="http://www.w3.org/2000/svg" xml:space="preserve" width="99.9998mm" height="38.647mm" version="1.1" style="shape-rendering:geometricPrecision; text-rendering:geometricPrecision; image-rendering:optimizeQuality; fill-rule:evenodd; clip-rule:evenodd"
viewBox="0 0 9985.74 3859.2"
 xmlns:xlink="http://www.w3.org/1999/xlink"
 xmlns:xodm="http://www.corel.com/coreldraw/odm/2003">
 <defs>
  <style type="text/css">
   <![CDATA[
    .fil3 {fill:#9D9E9E;fill-rule:nonzero}
    .fil2 {fill:#2B2A29;fill-rule:nonzero}
    .fil1 {fill:#005740;fill-rule:nonzero}
    .fil0 {fill:#373435;fill-rule:nonzero}
   ]]>
  </style>
 </defs>
 <g id="Ebene_x0020_1">
  <metadata id="CorelCorpID_0Corel-Layer"/>
  <g id="_1867413597760">
   <g>
    <path class="fil0" d="M3187.02 2457.57l50.03 0 0 0 -1.82 72.11 -5.41 71.18 -8.91 70.14 -12.34 69.03 -15.65 67.82 -18.89 66.53 -22.03 65.14 -25.11 63.66 -28.06 62.09 -30.96 60.44 -33.75 58.7 -36.46 56.87 -39.08 54.94 -41.6 52.95 -44.05 50.85 -46.4 48.67 -48.67 46.4 -50.86 44.05 -52.94 41.61 -54.95 39.07 -56.86 36.46 -58.7 33.75 -60.44 30.95 -62.09 28.07 -63.66 25.1 -65.13 22.04 -66.53 18.88 -67.82 15.65 -69.02 12.34 -70.14 8.91 -71.18 5.41 -72.1 1.82 0 -50.03 69.58 -1.76 68.64 -5.23 67.64 -8.59 66.55 -11.88 65.39 -15.09 64.13 -18.2 62.79 -21.26 61.36 -24.19 59.87 -27.07 58.27 -29.85 56.6 -32.53 54.84 -35.16 52.99 -37.68 51.05 -40.13 49.06 -42.49 46.93 -44.75 44.77 -46.95 42.49 -49.05 40.12 -51.06 37.69 -52.98 35.16 -54.85 32.53 -56.6 29.86 -58.27 27.06 -59.87 24.2 -61.36 21.25 -62.8 18.21 -64.13 15.09 -65.39 11.88 -66.56 8.59 -67.64 5.23 -68.64 1.76 -69.59 0 0zm-1351.58 -1351.52l0 -50.03 0 0 72.1 1.82 71.18 5.41 70.14 8.91 69.02 12.34 67.82 15.65 66.53 18.88 65.13 22.04 63.65 25.09 62.1 28.07 60.44 30.95 58.7 33.76 56.86 36.45 54.95 39.07 52.94 41.61 50.86 44.04 48.67 46.41 46.4 48.66 44.05 50.85 41.6 52.94 39.08 54.95 36.46 56.86 33.75 58.7 30.96 60.44 28.06 62.08 25.11 63.66 22.03 65.13 18.89 66.53 15.65 67.81 12.34 69.02 8.91 70.14 5.41 71.18 1.82 72.1 -50.03 0 -1.76 -69.58 -5.23 -68.64 -8.59 -67.64 -11.88 -66.55 -15.09 -65.38 -18.21 -64.13 -21.25 -62.79 -24.2 -61.36 -27.06 -59.86 -29.86 -58.27 -32.53 -56.6 -35.16 -54.84 -37.69 -52.99 -40.12 -51.05 -42.49 -49.05 -44.77 -46.94 -46.93 -44.76 -49.06 -42.48 -51.05 -40.13 -52.99 -37.68 -54.84 -35.15 -56.6 -32.54 -58.27 -29.85 -59.86 -27.05 -61.37 -24.2 -62.79 -21.26 -64.13 -18.2 -65.39 -15.09 -66.55 -11.88 -67.64 -8.59 -68.64 -5.23 -69.58 -1.76 0 0zm-1351.6 1351.52l-50.03 0 0 0 1.82 -72.1 5.41 -71.18 8.91 -70.14 12.34 -69.02 15.65 -67.81 18.89 -66.53 22.03 -65.13 25.11 -63.66 28.07 -62.08 30.95 -60.44 33.76 -58.7 36.45 -56.86 39.08 -54.96 41.61 -52.93 44.05 -50.85 46.39 -48.66 48.68 -46.41 50.85 -44.04 52.95 -41.61 54.95 -39.07 56.86 -36.45 58.71 -33.76 60.44 -30.95 62.09 -28.07 63.66 -25.09 65.13 -22.04 66.53 -18.88 67.81 -15.65 69.03 -12.34 70.14 -8.91 71.18 -5.41 72.1 -1.82 0 50.03 -69.58 1.76 -68.64 5.23 -67.64 8.59 -66.56 11.88 -65.38 15.09 -64.13 18.2 -62.79 21.26 -61.38 24.2 -59.85 27.05 -58.27 29.85 -56.61 32.54 -54.84 35.15 -52.99 37.68 -51.06 40.13 -49.05 42.48 -46.94 44.76 -44.76 46.94 -42.49 49.05 -40.13 51.06 -37.69 52.98 -35.15 54.84 -32.54 56.6 -29.85 58.27 -27.07 59.86 -24.2 61.36 -21.25 62.79 -18.21 64.13 -15.09 65.38 -11.88 66.55 -8.59 67.64 -5.23 68.64 -1.76 69.58 0 0zm1351.6 1351.6l0 50.03 0 0 -72.1 -1.82 -71.18 -5.41 -70.14 -8.91 -69.03 -12.34 -67.81 -15.65 -66.53 -18.88 -65.13 -22.04 -63.67 -25.1 -62.08 -28.07 -60.44 -30.95 -58.71 -33.75 -56.86 -36.46 -54.95 -39.07 -52.95 -41.61 -50.85 -44.05 -48.68 -46.4 -46.39 -48.67 -44.05 -50.85 -41.61 -52.94 -39.08 -54.95 -36.45 -56.87 -33.76 -58.7 -30.95 -60.44 -28.07 -62.09 -25.11 -63.66 -22.03 -65.14 -18.89 -66.53 -15.65 -67.82 -12.34 -69.03 -8.91 -70.14 -5.41 -71.18 -1.82 -72.11 50.03 0 1.76 69.59 5.23 68.64 8.59 67.64 11.88 66.56 15.09 65.39 18.21 64.13 21.25 62.8 24.2 61.36 27.07 59.87 29.85 58.27 32.54 56.6 35.15 54.85 37.69 52.97 40.13 51.07 42.49 49.05 44.76 46.95 46.94 44.75 49.05 42.49 51.06 40.13 52.99 37.68 54.84 35.16 56.61 32.53 58.27 29.85 59.86 27.07 61.37 24.19 62.79 21.26 64.13 18.2 65.38 15.09 66.56 11.88 67.64 8.59 68.64 5.23 69.58 1.76 0 0z"/>
   </g>
   <path class="fil1" d="M3670.92 2457.54l0 -2447.24 -3670.92 0 0 2447.24 183.58 0c0,-912.32 739.54,-1651.94 1651.89,-1651.94 912.32,0 1651.86,739.63 1651.86,1651.94l183.58 0z"/>
   <path class="fil2" d="M4075.61 631.06l172.33 0 0 -222.93 111.47 -0.86c33.43,0 108.04,0 156.05,-26.58 24.01,-12.85 93.46,-60.01 93.46,-168.9 0,-80.61 -35.15,-136.34 -87.46,-168.06 -50.59,-31.72 -113.18,-31.72 -161.19,-31.72l-284.66 0 0 619.06zm172.33 -504.16l75.45 0c49.73,0 110.6,4.28 110.6,79.74 0,83.17 -67.72,83.17 -109.74,83.17l-76.31 0 0 -162.91z"/>
   <path class="fil3" d="M4674.1 631.06l88.31 0 66.87 -161.2 287.24 0 66.87 161.2 93.46 0 -250.36 -619.06 -91.75 0 -260.65 619.06zm302.67 -534.17l114.04 303.52 -234.08 0 120.04 -303.52zm416.7 534.17l84.89 0 0 -279.52 108.03 0c103.75,0 125.19,25.72 135.48,115.75 6,47.15 14.58,122.61 28.3,163.77l91.74 0c-24.02,-68.6 -30.01,-121.76 -38.58,-194.64 -8.57,-77.16 -35.15,-103.74 -94.32,-119.17 18.86,-5.14 46.3,-13.72 72.89,-40.3 27.43,-27.44 43.73,-66.02 43.73,-109.74 0,-49.74 -22.3,-96.89 -68.6,-126.04 -45.44,-29.16 -110.6,-29.16 -142.32,-29.16l-221.22 0 0 619.06zm83.17 -547.03l135.47 0c34.3,0 123.47,0 123.47,100.32 0,51.45 -30.01,73.73 -42.01,80.6 -23.15,13.72 -72.03,13.72 -81.46,13.72l-135.47 0 0 -194.63zm524.74 547.03l85.74 0 0 -619.06 -85.74 0 0 619.06zm245.21 -180.92c0,30.02 0.86,79.75 36.01,125.19 48.88,62.58 144.91,70.31 192.07,70.31 158.62,0 244.36,-83.18 244.36,-192.92 0,-25.72 -4.28,-85.74 -61.73,-123.47 -36.01,-24.01 -52.31,-27.43 -199.78,-65.16 -75.45,-18 -111.46,-36.87 -111.46,-91.74 0,-61.73 51.45,-100.32 137.18,-100.32 60.87,0 126.04,17.15 130.32,94.32l89.17 0c-1.72,-25.72 -3.43,-67.74 -37.73,-105.46 -49.74,-54.02 -132.9,-60.88 -174.06,-60.88 -116.6,0 -235.78,54.87 -235.78,180.91 0,41.16 13.72,87.46 64.31,121.76 31.72,21.43 73.73,31.72 168.05,54.87 86.6,21.44 142.33,35.16 142.33,104.6 0,30.88 -16.29,110.61 -144.9,110.61 -142.33,0 -147.47,-79.74 -149.19,-122.62l-89.17 0z"/>
   <polygon class="fil2" points="4070.46,1659.95 4522.32,1659.95 4522.32,1538.21 4244.52,1538.21 4244.52,1040.91 4070.46,1040.91 "/>
   <path class="fil3" d="M4621.78 1354.72c0,169.77 68.59,319.81 279.52,319.81 220.36,0 286.37,-165.48 286.37,-330.1 0,-210.07 -108.04,-319.82 -279.52,-319.82 -57.44,0 -142.33,13.73 -206.64,83.17 -67.73,72.88 -79.74,176.63 -79.74,246.94zm90.02 -5.14c0,-126.9 40.3,-252.94 197.21,-252.94 141.48,0 187.78,106.32 187.78,246.94 0,42.01 -5.15,139.75 -55.74,201.49 -36.01,42.87 -86.6,56.59 -137.18,56.59 -48.87,0 -102.03,-12.86 -137.18,-56.59 -42.87,-53.16 -54.88,-127.76 -54.88,-195.49zm636.2 310.38l174.06 0c90.88,0 167.19,0 228.06,-50.59 47.16,-37.72 102.89,-120.04 102.89,-253.79 0,-84.88 -21.44,-169.78 -76.31,-234.08 -68.59,-80.6 -166.34,-80.6 -249.5,-80.6l-179.2 0 0 619.05zm85.74 -547.88l102.89 0c75.45,0 125.18,10.29 164.63,54.01 58.31,64.31 60.01,169.77 60.01,192.91 0,36.02 -2.57,137.19 -81.45,196.35 -41.15,30.87 -102.88,34.29 -162.05,34.29l-84.03 0 0 -477.57zm565.89 547.88l84.88 0 0 -279.51 108.04 0c103.74,0 125.18,25.72 135.48,115.75 6,47.15 14.57,122.61 28.29,163.76l91.74 0c-24.01,-68.59 -30.01,-121.75 -38.57,-194.63 -8.57,-77.17 -35.15,-103.74 -94.32,-119.17 18.86,-5.14 46.29,-13.73 72.88,-40.3 27.44,-27.44 43.73,-66.02 43.73,-109.75 0,-49.73 -22.29,-96.88 -68.59,-126.04 -45.45,-29.15 -110.6,-29.15 -142.33,-29.15l-221.21 0 0 619.05zm83.17 -547.02l135.47 0c34.3,0 123.46,0 123.46,100.32 0,51.45 -30.01,73.72 -42,80.6 -23.16,13.71 -72.03,13.71 -81.46,13.71l-135.47 0 0 -194.62zm499.88 241.79c0,169.77 68.59,319.81 279.51,319.81 220.36,0 286.37,-165.48 286.37,-330.1 0,-210.07 -108.03,-319.82 -279.51,-319.82 -57.45,0 -142.33,13.73 -206.64,83.17 -67.74,72.88 -79.74,176.63 -79.74,246.94zm90.02 -5.14c0,-126.9 40.3,-252.94 197.21,-252.94 141.47,0 187.77,106.32 187.77,246.94 0,42.01 -5.15,139.75 -55.74,201.49 -36,42.87 -86.59,56.59 -137.17,56.59 -48.88,0 -102.03,-12.86 -137.18,-56.59 -42.88,-53.16 -54.88,-127.76 -54.88,-195.49zm642.2 310.38l78.02 0 0 -525.59 314.68 525.59 109.74 0 0 -619.05 -78.89 0 0 511.88 -304.38 -511.88 -119.18 0 0 619.05z"/>
   <path class="fil2" d="M4074.75 2069.81l-0.86 352.4c0,101.18 0.86,282.95 293.24,282.95 78.02,0 188.62,-14.58 248.65,-88.32 38.58,-45.45 48.01,-120.04 48.01,-188.62l0 -358.4 -167.19 0 0 361.82c0,61.73 -14.58,150.05 -123.47,150.05 -42.01,0 -82.3,-16.29 -105.46,-50.59 -17.15,-25.72 -19.72,-60.02 -19.72,-93.46l0 -367.83 -173.19 0z"/>
   <path class="fil3" d="M4843.01 2688.86l78.02 0 0 -525.6 314.68 525.6 109.74 0 0 -619.05 -78.88 0 0 511.87 -304.39 -511.87 -119.18 0 0 619.05zm695.36 0l85.74 0 0 -619.05 -85.74 0 0 619.05zm751.95 -619.05l-86.61 0 -185.2 529.02 -175.77 -529.02 -95.17 0 220.36 619.05 94.32 0 228.07 -619.05zm116.61 619.05l395.26 0 0 -75.45 -309.52 0 0 -205.78 288.09 0 0 -72.03 -288.09 0 0 -192.91 302.67 0 0 -72.88 -388.41 0 0 619.05zm566.73 0l84.88 0 0 -279.51 108.04 0c103.74,0 125.18,25.71 135.48,115.74 6,47.15 14.57,122.61 28.29,163.77l91.74 0c-24.01,-68.59 -30.01,-121.76 -38.57,-194.63 -8.58,-77.17 -35.15,-103.75 -94.33,-119.18 18.87,-5.14 46.3,-13.72 72.89,-40.3 27.43,-27.43 43.73,-66.02 43.73,-109.74 0,-49.73 -22.29,-96.89 -68.59,-126.04 -45.45,-29.15 -110.6,-29.15 -142.33,-29.15l-221.21 0 0 619.05zm83.16 -547.02l135.48 0c34.3,0 123.46,0 123.46,100.32 0,51.44 -30.01,73.72 -42.01,80.6 -23.15,13.71 -72.02,13.71 -81.45,13.71l-135.48 0 0 -194.62zm497.31 366.11c0,30.01 0.86,79.74 36.01,125.18 48.87,62.59 144.9,70.31 192.06,70.31 158.62,0 244.36,-83.17 244.36,-192.92 0,-25.71 -4.28,-85.74 -61.73,-123.46 -36.01,-24.01 -52.3,-27.44 -199.78,-65.16 -75.45,-18.01 -111.46,-36.88 -111.46,-91.75 0,-61.73 51.45,-100.32 137.18,-100.32 60.88,0 126.04,17.16 130.32,94.32l89.17 0c-1.71,-25.72 -3.43,-67.73 -37.73,-105.46 -49.73,-54.01 -132.9,-60.88 -174.06,-60.88 -116.6,0 -235.78,54.87 -235.78,180.91 0,41.16 13.72,87.47 64.31,121.76 31.72,21.44 73.74,31.72 168.05,54.87 86.61,21.44 142.34,35.16 142.34,104.61 0,30.87 -16.3,110.61 -144.9,110.61 -142.33,0 -147.48,-79.75 -149.2,-122.62l-89.16 0zm633.63 180.91l85.74 0 0 -619.05 -85.74 0 0 619.05zm507.59 0l0 -546.17 207.49 0 0 -72.88 -499.88 0 0 72.88 207.49 0 0 546.17 84.89 0zm191.19 0l88.31 0 66.87 -161.19 287.24 0 66.87 161.19 93.46 0 -250.36 -619.05 -91.75 0 -260.65 619.05zm302.67 -534.17l114.04 303.53 -234.08 0 120.04 -303.53zm-122.62 -149.19l78.89 0 0 -87.46 -78.89 0 0 87.46zm162.06 0l79.74 0 0 -87.46 -79.74 0 0 87.46zm549.6 683.36l0 -546.17 207.49 0 0 -72.88 -499.87 0 0 72.88 207.49 0 0 546.17 84.88 0z"/>
   <path class="fil2" d="M4049.03 3520.53c0.86,26.57 1.71,87.46 47.15,137.18 56.59,63.45 160.34,73.74 224.65,73.74 155.19,0 273.52,-61.74 273.52,-199.79 0,-131.18 -97.75,-156.91 -180.06,-178.34l-115.75 -30.01c-24.86,-6.87 -62.58,-18.01 -62.58,-63.46 0,-36.86 31.71,-65.16 81.44,-65.16 82.31,0 81.45,66.87 81.45,85.74l174.06 0c-0.86,-66.03 -11.15,-197.21 -252.94,-197.21 -185.2,0 -260.65,93.47 -260.65,193.78 0,129.47 110.6,158.61 153.47,169.76l151.76 39.44c41.15,11.14 53.16,30.87 53.16,60.02 0,70.31 -77.17,70.31 -91.75,70.31 -102.03,0 -103.75,-71.17 -104.6,-96.03l-172.34 0z"/>
   <path class="fil3" d="M4674.1 3717.73l88.31 0 66.87 -161.19 287.24 0 66.87 161.19 93.46 0 -250.36 -619.05 -91.75 0 -260.65 619.05zm302.67 -534.17l114.04 303.53 -234.08 0 120.04 -303.53zm422.7 534.17l372.98 0 0 -76.3 -288.09 0 0 -542.75 -84.89 0 0 619.05zm461.29 0l465.58 0 0 -75.45 -366.98 0 360.98 -458.72 0 -84.88 -450.14 0 0 75.45 348.1 0 -357.54 457.86 0 85.74zm609.6 0l225.51 0c48.87,0 96.88,0 139.75,-28.29 20.58,-13.72 74.59,-56.59 74.59,-140.62 0,-118.32 -87.45,-144.03 -123.45,-154.33 30.01,-11.14 104.6,-37.73 104.6,-139.76 0,-48.87 -17.16,-84.88 -43.73,-110.6 -38.59,-37.73 -80.6,-45.45 -156.05,-45.45l-221.22 0 0 619.05zm83.17 -548.74l123.47 0c47.15,0 125.18,0 125.18,93.46 0,97.74 -99.47,97.74 -128.62,97.74l-120.04 0 0 -191.2zm0 264.94l150.05 0c75.45,0 118.33,45.45 118.33,107.18 0,71.16 -54.02,107.17 -121.76,107.17l-146.62 0 0 -214.34zm521.32 -335.25l0 377.26c0,92.6 17.15,128.62 36.01,156.05 57.45,82.31 160.34,98.61 218.63,98.61 44.59,0 138.9,-9.44 199.79,-85.75 49.73,-61.73 50.59,-131.18 50.59,-164.62l0 -381.56 -83.17 0 0 379.84c0,44.58 0,175.77 -167.2,175.77 -42.86,0 -102.88,-9.44 -141.46,-60.88 -12.86,-18 -27.44,-45.45 -27.44,-111.46l0 -383.26 -85.74 0zm695.35 619.05l84.88 0 0 -279.51 108.04 0c103.74,0 125.18,25.72 135.48,115.75 6,47.15 14.57,122.61 28.29,163.76l91.74 0c-24.01,-68.59 -30.01,-121.75 -38.57,-194.63 -8.58,-77.17 -35.15,-103.74 -94.32,-119.17 18.86,-5.14 46.29,-13.72 72.88,-40.3 27.44,-27.44 43.73,-66.02 43.73,-109.75 0,-49.73 -22.29,-96.88 -68.59,-126.04 -45.45,-29.15 -110.6,-29.15 -142.33,-29.15l-221.21 0 0 619.05zm83.17 -547.02l135.47 0c34.3,0 123.46,0 123.46,100.32 0,51.45 -30.01,73.73 -42.01,80.6 -23.15,13.71 -72.02,13.71 -81.45,13.71l-135.47 0 0 -194.62zm1037.47 82.31c-1.72,-24.02 -4.28,-60.02 -41.16,-98.61 -59.16,-60.01 -133.75,-66.03 -182.63,-66.03 -30.87,0 -111.46,2.59 -172.33,43.74 -117.46,78.88 -132.9,224.64 -132.9,286.37 0,87.46 25.72,174.05 86.6,235.79 43.73,44.58 110.61,77.17 224.64,77.17 105.47,0 184.35,-25.72 220.36,-37.74l0 -305.23 -227.22 0 0 71.17 141.48 0 0 183.48c-19.72,6 -64.31,19.72 -134.62,19.72 -61.73,0 -124.31,-14.58 -164.62,-60.87 -45.45,-54.02 -56.59,-142.33 -56.59,-194.63 0,-58.3 12,-138.9 66.02,-198.92 32.58,-36.87 81.45,-52.31 139.76,-52.31 84.02,0 130.32,39.44 139.75,96.89l93.47 0z"/>
   <path class="fil2" d="M2958.33 2411.79l-0.17 -0.08c0.17,-11.6 -1.02,-28.23 -2.77,-43.55 -2.65,-1.59 -5.89,-2.42 -8.69,-3.79 -17.36,14.71 -31.24,31.43 -37.92,53.69 -8.49,28.34 -4.58,62.7 -4.58,62.7 0,0 -25.43,-25.83 -16.7,-76.34 3.68,-21.22 11.38,-38.35 20.04,-52.42 -24.17,-4.15 -49.18,-3.9 -68.99,0.9 -2.79,0.69 -5.3,2.02 -8.06,2.84 -10.06,21.42 -10.01,41.86 -3.3,59.57 6.32,16.75 21.58,37.81 21.58,37.81 0,0 -35.52,-8.53 -49.57,-41.04 -5.74,-13.36 -7.17,-26.58 -6.76,-38.73 -20.09,12.98 -36.86,30.26 -46.15,52.34 -26.36,62.63 -8.5,114.09 5.28,140.5 9.15,13.25 26.83,33.54 55.69,46.59 32.24,14.6 59.54,16.2 59.54,16.2 0,0 -17.77,10.88 -59.69,8.19 -22.46,-1.45 -41.51,-12.26 -54.13,-21.55 -18.86,39.8 -51.82,49.7 -79.86,52.29 -79.2,7.33 -173.51,-55.7 -255.46,-121.9 0.05,-0.13 0.07,-0.29 0.11,-0.43 -51.05,-39.39 -96.52,-82.75 -124.69,-112.91 -24.96,-26.77 -53.17,-67.36 -53.17,-67.36l56.03 -64.53c0,0 13.19,69.13 83.67,145.56 19.85,21.55 36.02,38.32 49.62,50.61 10.18,-58.17 11.71,-121.18 12.02,-121.34 36.86,-22.87 133.29,-80.36 205.09,-112.46 108.18,-48.44 209.53,-54.29 284.82,-49.6 -12.1,-49.07 -21.86,-98.21 -63.17,-198.28 -27.58,-66.82 -67.7,-133.63 -97.48,-177.89l0.06 0c0,0 -0.47,-0.65 -0.89,-1.26 -1.73,-2.56 -3.56,-5.36 -5.24,-7.78 -0.05,0 -0.17,0 -0.25,0 -1.26,-1.82 -2.39,-3.42 -2.83,-3.96 -10.13,-13.69 -62.29,-81.5 -93.69,-116.66 -8.96,-10.09 -19.79,-21.5 -30.71,-32.68 -0.03,0 -0.22,-0.24 -0.22,-0.24l-0.09 -0.04c-24.14,-24.79 -48.54,-48.32 -53.54,-53.13 -4.5,-4.47 -13.34,-12.48 -31.1,-26.53 -2.64,0.72 -5.13,2.29 -7.78,3.2 -1.78,20.7 0.11,40.63 9.6,59.84 13.11,26.52 39.42,49.02 39.42,49.02 0,0 -36.23,-1.57 -64.28,-44.49 -10.31,-15.78 -16.3,-31.4 -19.86,-45.96 -20.37,14.38 -38.11,32.69 -48.64,50.86 -1.21,2.06 -1.78,4.32 -2.88,6.43 7.8,17.84 19.95,30.5 34.71,37.77 16.03,7.92 41.54,12.92 41.54,12.92 0,0 -31.77,18.01 -64.22,3.79 -9.98,-4.36 -18.11,-10.42 -25.01,-16.99 -4.86,24.31 -4.04,49.43 4.34,73.04 14.96,42.07 49.04,73.57 94.6,89.81 16.05,3.09 40.9,4.86 68.82,-4.56 33.54,-11.32 54.6,-28.78 54.6,-28.78 0,0 -5.61,20.12 -38.11,46.73 -12.5,10.23 -27.04,15.7 -40.07,18.69 19.38,44.12 3.92,77.22 -15.94,98.79 -42.86,46.38 -128.91,76.32 -230.87,80.71 -23.88,-35.52 -45.55,-60.14 -55.99,-71.23 -0.8,-0.85 -5.44,-5.8 -11.51,-11.93 -5.04,-6.51 -32.85,-31.01 -62.21,-56.18 -8.96,12.83 -23.12,31.23 -42.59,50.69 -36.34,36.35 -100.67,55.64 -100.67,55.64 0,0 -74.46,-12.48 -135.24,-56.99 -25.07,-18.36 -56.25,-48.98 -68.57,-73.18 -41.06,-57.56 -22.1,-144.81 -22.1,-144.81 0,0 -20.06,-2.12 -44.48,-13.63 -35.52,-16.78 -66.11,-51.25 -76.2,-82.09 -11.51,-35.24 -10.82,-118.89 81.7,-149.7 42.2,-11.03 61.25,8.1 61.25,8.1 0,0 -65.13,2.84 -89.73,45.06 -24.57,42.23 -12.2,80.03 12.23,100.34 29.39,26.22 101.11,35.99 101.11,35.99 0,0 -22.33,79.01 0.36,126.86 12.31,26.01 55.31,73.32 102.86,95.33 30.19,14.05 56.77,25.23 84.53,30.52 44.15,-20.48 79.7,-71.81 81.28,-74.14 -0.11,-0.11 -0.3,-0.25 -0.44,-0.36 1.08,-1.35 2.24,-2.52 3.28,-3.9 25.53,-33.61 38.59,-77.24 38.55,-77.3l-0.36 0.17c0.13,-0.49 0.25,-0.82 0.25,-0.82 0,0 -86.3,-47.12 -54.82,-106.09 22.05,-41.36 79.45,-16.71 105.12,-1.76l30.16 17.54 79.81 -163.68c0,0 -110.07,-48.08 -164.01,-68.94l32.27 -89.7 -37.04 -12.37c-185.95,-62.15 -357.05,-71.91 -525.56,-43.82 -159.74,26.64 -293.59,115.22 -367.24,242.98 -74.49,129.29 -83.95,307.93 -24.05,443.37 42.83,96.85 101.44,157.72 112.21,284.07 8.24,96.77 -37.59,174.93 -70.77,245.3 22.33,2.11 48.64,6.32 48.64,6.32 34.33,4.42 100.31,7.45 156,9.35 39.45,-38.38 92.5,-106.17 105.31,-202.07 11.1,-104.33 -26.79,-188.53 -58.17,-244.49 -30.02,-53.53 -87.61,-133.11 -118.42,-193.75 -53.21,-104.54 -64.11,-202.76 -36.45,-292.84 17.08,-55.66 52.53,-102.12 95.9,-136.46 38.24,-28.12 58.42,-30.43 93.53,-41.13 -60.89,36.13 -109.6,89.93 -131.29,160.57 -27.66,90.09 -18.19,188.3 35.02,292.84 30.82,60.64 92.67,134.57 122.69,188.06 31.37,55.99 72.19,140.14 66.68,237.4 -2.36,64.95 -32.54,148.8 -70.42,206.28 -9.19,13.88 -14.87,22.02 -19.27,27.99 0.36,0 0.91,0.02 1.26,0.02 -30.21,41.29 -107.32,118.43 -210.09,156.94 -109.16,40.88 -230.34,43.94 -281.23,8.85 -2.56,-1.78 -4.94,-3.62 -7.2,-5.49 66.26,-7.62 134.62,-44.76 158.48,-119.97 26.68,-84.14 -4.53,-139.95 -56.16,-187.61 78.09,-103.93 83.23,-236.24 11.1,-318.22 -9.41,-10.71 -19.68,-20.12 -30.52,-28.21 24.42,-110.67 7.12,-251.74 -58.75,-299.87 -35.74,-26.09 -76.25,-34.2 -117.15,-23.57 -102.37,26.77 -168.57,149.09 -199.47,217.01 -30.96,67.83 -56.72,137.47 -85.42,272.22 -24.17,113.64 -28.23,334.82 19.5,490.77 7.2,23.4 22.42,21.83 23.09,8.99 2.58,-55.55 10.51,-100.8 20.4,-137.25 11.59,-42.8 25.97,-73.43 37.77,-94.07 37.47,-65.54 72.63,-205.71 26.91,-321.3 -16.96,-42.94 -9.76,-109.4 16.03,-180.32 37.91,-81.76 101.41,-169.89 159.68,-185.15 19.71,-5.17 37.34,-1.4 55.44,11.81 25.46,18.64 52.89,109.27 33.84,209.75 -13.27,-2.73 -26.85,-3.73 -40.43,-2.92 -46.29,2.73 -88.16,26.64 -114.96,65.51 -41.21,60.01 -40.86,151.11 25.53,231.5 -57.62,81.94 -101.22,158 -88.07,252.79 8.69,62.54 51.52,110.22 113.28,129.85 9.52,30.05 28.38,55.39 55.48,74.11 35.95,24.73 88.7,37.08 149.52,37.08 33.92,0 70.34,-3.97 107.7,-11.7 -9.6,44.45 -46.21,89.69 -74.38,106.6 -64.3,38.59 -153.61,31.86 -236.54,-47.53 0,0 -17.65,-17.35 -29.31,-28.11 -47.99,52.45 -89.67,149.82 -89.7,219.14l40.54 58.14c174.12,217.53 357.9,317.73 511.34,372.66 0,-0.04 0.03,-0.06 0.06,-0.09 3.35,1.21 66.93,24.17 121.44,38.62 65.21,17.3 133,20.81 133,20.81l0.31 -0.83c2.36,-2.37 4.11,-5.52 6.28,-8.14 -15.17,-23.92 -32.95,-43.32 -59.24,-53.24 -27.68,-10.48 -62.23,-8.96 -62.23,-8.96 0,0 27.54,-23.56 77.29,-11.33 30.11,7.4 51.61,22.27 66.64,36.43 8.91,-21.08 14.13,-43.57 14.18,-62.87 0.03,-1.84 -0.47,-3.57 -0.55,-5.39 -2.67,-2.58 -5.33,-5.21 -8.52,-8.05 -27.02,-23.95 -54.65,-28.15 -78.4,-21.03 -17.13,5.14 -39.18,18.88 -39.18,18.88 0,0 10.95,-34.82 44.41,-46.56 27.29,-9.57 53.43,-3.09 69.96,3.51 -8.23,-18.49 -20.4,-35.08 -36.01,-48.4 -26.61,-22.83 -72.72,-42.15 -110.62,-37.86 -37.94,4.28 -53.76,10.91 -75.6,24.92 -22.12,14.25 -34.77,26.37 -48.51,51.83 -16.83,31.18 -20.29,58.31 -20.29,58.31 0,0 -9.65,-18.53 -4.01,-60.15 4.51,-33.53 29.58,-58.17 37.47,-65.23 -43.24,-31.58 -87.3,-96.74 -90.16,-140.72 89.23,23.62 178.66,22.3 251.03,-3.93 7.39,-3.5 15.54,-7.5 22.63,-12.42 56.82,-39.2 72.66,-69.08 90.85,-109.41 29.78,-66.02 44.18,-171.64 20.56,-224.77 -22.71,-51.05 -109.21,-104.96 -109.21,-104.96l62.4 -15.59c0,0 34.11,20.56 57.45,45.39 23.32,24.79 49.32,49.62 49.32,49.62 0,0 42.14,53.19 87.53,65.95 43.54,12.26 57.51,10.18 93.6,7.81 12.34,-0.82 28.16,-3.62 46.43,-7.53 0,-0.09 -0.03,-0.11 -0.05,-0.16 40.43,-12.32 70.79,-21.95 106.05,-40.25 -37.41,-18.99 -71.41,-47.48 -99.23,-78.98 -53.2,-60.28 -71.62,-168.79 -71.62,-168.79l63.81 -28.17c0,0 -0.72,87.03 43.96,154.49 23.78,35.9 50.91,65.67 101.41,96.35 34.22,20.78 76.44,35.93 104.29,44.64 22.33,6.24 44.45,11.6 60.75,14.65 53.66,10.07 88.98,13.04 170.93,14.85 21.45,0.44 62.65,4.15 88.05,14.08 26.58,10.31 57.51,29.17 82.88,53.68 23.2,22.38 57.53,73.48 67.59,109.1 17.46,-22.87 58.61,-90.96 102.83,-196.27 30.79,-73.32 57.62,-210.25 57.02,-210.99 5.11,-22.46 12.76,-87.47 13.77,-122.84 1.05,-36.59 2.92,-123.95 2.92,-123.95zm-1911.78 -8.06c1.96,1.52 3.95,3.03 6.02,4.48 10.5,7.67 20.86,15.07 30.99,22.24 8.96,6.41 17.4,12.45 25.33,18.33 -38.21,54.65 -83.29,131.82 -94.94,204.44 -17.37,-11.13 -32.6,-29.06 -36.62,-57.83 -9.13,-65.73 22.63,-124.33 69.22,-191.67zm55.34 -284.7c-1.27,4.04 -2.51,8.06 -3.71,11.98 -20.18,65.16 -35.02,107.79 -63.47,152.04 -32.08,-48.51 -32.11,-97.58 -9.85,-129.99 14.4,-20.95 35.82,-33.29 60.28,-34.75 1.62,-0.1 3.22,-0.16 4.83,-0.16 3.96,0 7.95,0.3 11.91,0.88zm51.16 271.15c-8.86,-6.43 -17.92,-12.89 -26.97,-19.35 -9.92,-7.06 -20.04,-14.29 -30.32,-21.83 -2.29,-1.64 -4.48,-3.27 -6.68,-4.91 42.39,-60.97 59.64,-114.83 78.73,-176.24 47.06,55.56 40.66,147.27 -14.76,222.33zm-69.38 284.22c5.99,-53.31 41.2,-120.83 82.87,-181.16 34.44,33.37 45.68,63.56 31.24,109.15 -21.12,66.56 -60.25,70.96 -114.11,72.01zm873.85 -1126.96c0,0 69.41,6.1 111.52,25.45 -61.79,18.55 -88.29,51.8 -123.34,56.69 -5.18,-26.5 11.82,-82.14 11.82,-82.14zm468.28 348.7c-34.61,17.1 -72.96,11.02 -86.95,-4.64 -14.02,-15.67 -17.07,-25.07 -25.2,-41.51 -8.67,-16.44 -17.62,-34.31 -28.98,-51.46 -11.59,-16.91 -25.73,-33.51 -43.49,-45.01 -17.58,-11.68 -42.58,-20.81 -56.57,-20.43 -13.97,0.39 -8.23,5.67 -2.48,8.42 5.77,2.72 30.4,19.52 40.85,32.52 10.61,12.94 17.49,28.12 22.65,44.29 11.48,32.48 12.72,68.58 34.75,111.69 2.83,5.41 5.93,10.77 10.26,16.21l6.06 8.06 6.64 7.09c8.8,9.63 19.9,17.92 32.31,24.79 25.02,13.75 58.34,14.83 84.73,3.01 26.88,-11.27 45.55,-33.37 54.81,-55.81 9.24,-22.76 9.79,-53.38 2.84,-67.94 -6.9,-14.52 -24.31,16.57 -52.24,30.73zm-789.51 1378.76c155.28,28.25 233.93,135.16 272.85,305.75 268,-17.18 460.78,-118.97 591.83,-215.23l0.05 0.27c0,0 66.04,-52.29 109.9,-92.5 15.48,-14.22 30.79,-30.74 43.69,-45.48 0,0.25 0.11,0.56 0.11,0.81 0,0 20.2,-22.19 33.06,-38.06 -0.46,-2.45 -1.74,-4.8 -2.39,-7.23 -25.6,-3.13 -49.9,-1.89 -72.75,10.4 -26.05,14.05 -47.57,41.1 -47.57,41.1 0,0 0.29,-36.24 42.19,-65.79 20.97,-14.79 42.14,-21.94 60.5,-25.09 -12.81,-20.35 -29.25,-38.35 -45.99,-49.68 -2,-1.37 -4.28,-2.11 -6.34,-3.39 -30.19,6.41 -49.26,22.69 -58.53,43.22 -7.34,16.34 -11.44,41.98 -11.44,41.98 0,0 -19.12,-31.12 -6.01,-64.06 6.95,-17.56 18.8,-30.16 30.59,-39.16 -21.16,-4.29 -43.04,-4.04 -64.13,1.81 -49.53,13.83 -100.17,50.98 -111.22,133.88 -0.35,14.51 1.38,32.16 8.5,51.08 12.47,33.12 30.68,53.54 30.68,53.54 0,0 -20.29,-4.86 -48.02,-36.42 -9.52,-10.83 -15.29,-23.48 -18.89,-35.27 -48.35,25.5 -129.39,41.32 -171.24,47.88 -52.22,8.19 -90.16,11.27 -115.26,-3.59 -26.31,-15.62 -35.63,-27.69 -48.41,-52.64 -16.19,-31.72 -9.92,-84.12 -2.88,-105.45 13.24,-39.86 76.38,-98.27 53.13,-176.95 -1.93,-10.34 -3.71,-18.14 -5.5,-25.18 -7.84,3.54 -15.48,6.77 -22.66,9.22 -88.65,30.51 -193.6,-8.5 -193.6,-8.5 0,0 -6.95,87.47 -41.12,140.39 -42.53,65.95 -75.26,92.91 -112.33,120.16 -23.17,17.02 -44.84,27.54 -62.72,34.3 -0.17,17.73 -2.37,37.08 -8.08,53.88z"/>
  </g>
 </g>
</svg>
